<?xml version="1.0" encoding="utf-8"?>
<!-- Generator: Adobe Illustrator 27.4.1, SVG Export Plug-In . SVG Version: 6.00 Build 0)  -->
<svg version="1.1" id="Layer_1" xmlns="http://www.w3.org/2000/svg" xmlns:xlink="http://www.w3.org/1999/xlink" x="0px" y="0px"
	 viewBox="0 0 48 48" style="enable-background:new 0 0 48 48;" xml:space="preserve">
<style type="text/css">
	.st0{fill:#EA1B40;}
	.st1{fill:#FEFEFE;}
</style>
<g>
	<circle class="st0" cx="-83.9" cy="-79.4" r="8.6"/>
	<g>
		<path class="st0" d="M-85.4-88c1,0,2,0,3,0c0,0,0.1,0.1,0.1,0.1c0.2,0,0.4,0.1,0.6,0.1c0.2,0.1,0.4,0.1,0.6,0.2
			c0.2,0.1,0.3,0.1,0.5,0.2c0.4,0.1,0.7,0.3,1,0.5c0.3,0.2,0.6,0.4,0.8,0.6c0.4,0.3,0.8,0.7,1.1,1.1c0.1,0.1,0.2,0.3,0.3,0.4
			c0.1,0.1,0.1,0.1,0.2,0.2c0.1,0.2,0.2,0.3,0.3,0.5c0.1,0.2,0.3,0.5,0.4,0.8c0.1,0.2,0.2,0.5,0.3,0.7c0.1,0.3,0.2,0.5,0.3,0.8
			c0,0.1,0,0.1,0,0.2c0,0,0,0.1,0,0.1c0,1.2,0,2.5,0,3.7c0,0,0,0-0.1,0.1c0,0.1,0,0.1,0,0.2c-0.1,0.3-0.2,0.6-0.3,0.9
			c-0.1,0.3-0.2,0.5-0.3,0.7c-0.1,0.2-0.2,0.4-0.3,0.5c-0.2,0.2-0.3,0.4-0.4,0.7c-0.2,0.3-0.5,0.6-0.7,0.9c-0.2,0.2-0.3,0.3-0.5,0.5
			c-0.2,0.2-0.4,0.4-0.7,0.5c-0.4,0.2-0.7,0.5-1.1,0.7c-0.3,0.1-0.6,0.2-0.8,0.4c-0.2,0.1-0.5,0.2-0.7,0.2c0,0,0,0-0.1,0
			c-1.4,0-2.8,0-4.2,0c0,0,0,0-0.1-0.1c-0.1,0-0.1,0-0.2,0c-0.3-0.1-0.7-0.2-1-0.4c-0.4-0.2-0.7-0.4-1.1-0.6c-0.5-0.3-1-0.7-1.4-1.1
			c-0.3-0.3-0.5-0.5-0.7-0.8c-0.2-0.2-0.4-0.5-0.5-0.7c-0.1-0.2-0.3-0.4-0.4-0.6c-0.1-0.3-0.2-0.5-0.4-0.8c-0.1-0.2-0.1-0.3-0.2-0.5
			c-0.1-0.2-0.1-0.4-0.2-0.7c0-0.1-0.1-0.2-0.1-0.4c0-1,0-2.1,0-3.1c0-0.2,0-0.3,0.1-0.5c0.1-0.3,0.2-0.6,0.3-0.9
			c0.1-0.2,0.2-0.5,0.3-0.7c0.1-0.3,0.3-0.6,0.5-0.8c0.2-0.3,0.3-0.5,0.5-0.7c0.2-0.3,0.5-0.5,0.7-0.8c0.3-0.4,0.7-0.7,1.1-1
			c0.3-0.2,0.7-0.4,1-0.6c0.3-0.1,0.5-0.2,0.8-0.3c0.4-0.2,0.8-0.3,1.2-0.3C-85.5-87.9-85.4-87.9-85.4-88z M-79.7-76.6
			c0-0.2-0.1-0.4-0.2-0.6c-0.1-0.2-0.2-0.4-0.2-0.6c-0.1-0.2-0.1-0.3-0.2-0.5c-0.1-0.4-0.3-0.7-0.4-1.1c-0.1-0.3-0.2-0.5-0.3-0.8
			c-0.1-0.3-0.2-0.6-0.3-0.9c-0.1-0.3-0.2-0.6-0.4-0.9c0-0.1-0.1-0.2-0.1-0.4c-0.1-0.2-0.2-0.5-0.3-0.7c-0.2-0.4-0.3-0.7-0.4-1.1
			c-0.1-0.3-0.2-0.5-0.3-0.8c-0.1-0.3-0.3-0.5-0.5-0.7c-0.2-0.2-0.5-0.2-0.7-0.1c-0.2,0.1-0.4,0.3-0.5,0.5c-0.1,0.1-0.1,0.3-0.2,0.4
			c-0.1,0.3-0.2,0.5-0.3,0.8c-0.1,0.1-0.1,0.3-0.2,0.4c-0.1,0.1-0.1,0.2-0.1,0.3c-0.2,0.4-0.3,0.7-0.5,1.1c-0.1,0.3-0.2,0.6-0.3,0.8
			c-0.1,0.1-0.1,0.2-0.1,0.3c-0.1,0.3-0.3,0.7-0.4,1c-0.1,0.2-0.2,0.4-0.3,0.7c-0.1,0.3-0.3,0.7-0.4,1c-0.1,0.2-0.2,0.5-0.3,0.7
			c-0.1,0.2-0.1,0.4-0.2,0.6c0,0.1,0,0.2,0,0.2c0,0.2,0,0.4,0.1,0.5c0.1,0.2,0.2,0.3,0.3,0.4c0.2,0.2,0.5,0.3,0.7,0.3
			c0.1,0,0.2,0,0.2-0.1c0.1-0.2,0.2-0.4,0.3-0.6c0.1-0.3,0.2-0.5,0.3-0.8c0.1-0.3,0.2-0.6,0.3-0.9c0.1-0.3,0.2-0.6,0.3-0.9
			c0.1-0.2,0.1-0.4,0.2-0.6c0.1-0.3,0.2-0.6,0.3-1c0.1-0.3,0.2-0.6,0.4-1c0.1-0.2,0.2-0.4,0.4-0.6c0.2-0.2,0.5-0.2,0.7,0
			c0.1,0.1,0.1,0.2,0.2,0.3c0.1,0.1,0.1,0.3,0.2,0.4c0.1,0.2,0.1,0.4,0.2,0.6c0.1,0.2,0.1,0.4,0.2,0.5c0.1,0.3,0.2,0.6,0.3,0.8
			c0.1,0.3,0.2,0.5,0.3,0.8c0.1,0.4,0.3,0.8,0.4,1.2c0.1,0.2,0.1,0.3,0.2,0.5c0.1,0.4,0.2,0.7,0.4,1.1c0.1,0.1,0.1,0.1,0.2,0.1
			c0.3-0.1,0.6-0.2,0.9-0.4C-79.9-75.9-79.7-76.2-79.7-76.6z"/>
		<path class="st0" d="M-85.5-88C-85.5-88-85.5-88-85.5-88C-85.5-88-85.5-88-85.5-88C-85.5-88-85.5-88-85.5-88z"/>
		<path class="st1" d="M-79.7-76.6c0,0.4-0.1,0.7-0.4,1c-0.2,0.2-0.5,0.4-0.9,0.4c-0.1,0-0.1,0-0.2-0.1c-0.1-0.4-0.2-0.7-0.4-1.1
			c-0.1-0.2-0.1-0.3-0.2-0.5c-0.1-0.4-0.3-0.8-0.4-1.2c-0.1-0.3-0.2-0.5-0.3-0.8c-0.1-0.3-0.2-0.6-0.3-0.8c-0.1-0.2-0.1-0.4-0.2-0.5
			c-0.1-0.2-0.1-0.4-0.2-0.6c-0.1-0.1-0.1-0.3-0.2-0.4c-0.1-0.1-0.1-0.2-0.2-0.3c-0.2-0.2-0.5-0.2-0.7,0c-0.2,0.2-0.3,0.4-0.4,0.6
			c-0.1,0.3-0.2,0.6-0.4,1c-0.1,0.3-0.2,0.6-0.3,1c-0.1,0.2-0.1,0.4-0.2,0.6c-0.1,0.3-0.2,0.6-0.3,0.9c-0.1,0.3-0.2,0.6-0.3,0.9
			c-0.1,0.3-0.2,0.5-0.3,0.8c-0.1,0.2-0.2,0.4-0.3,0.6c-0.1,0.1-0.1,0.1-0.2,0.1c-0.3-0.1-0.5-0.2-0.7-0.3c-0.1-0.1-0.2-0.3-0.3-0.4
			c-0.1-0.2-0.1-0.3-0.1-0.5c0-0.1,0-0.2,0-0.2c0.1-0.2,0.1-0.4,0.2-0.6c0.1-0.2,0.2-0.5,0.3-0.7c0.1-0.3,0.3-0.7,0.4-1
			c0.1-0.2,0.2-0.4,0.3-0.7c0.1-0.3,0.3-0.7,0.4-1c0-0.1,0.1-0.2,0.1-0.3c0.1-0.3,0.2-0.5,0.3-0.8c0.2-0.4,0.3-0.7,0.5-1.1
			c0.1-0.1,0.1-0.2,0.1-0.3c0.1-0.1,0.1-0.3,0.2-0.4c0.1-0.3,0.2-0.5,0.3-0.8c0.1-0.1,0.1-0.3,0.2-0.4c0.1-0.2,0.3-0.4,0.5-0.5
			c0.2-0.1,0.5-0.1,0.7,0.1c0.2,0.2,0.4,0.4,0.5,0.7c0.1,0.3,0.2,0.5,0.3,0.8c0.1,0.4,0.3,0.7,0.4,1.1c0.1,0.2,0.2,0.5,0.3,0.7
			c0.1,0.1,0.1,0.2,0.1,0.4c0.1,0.3,0.2,0.6,0.4,0.9c0.1,0.3,0.2,0.6,0.3,0.9c0.1,0.3,0.2,0.5,0.3,0.8c0.2,0.4,0.3,0.7,0.4,1.1
			c0.1,0.2,0.1,0.3,0.2,0.5c0.1,0.2,0.2,0.4,0.2,0.6C-79.8-77-79.7-76.8-79.7-76.6z"/>
	</g>
</g>
<g>
	<circle class="st0" cx="24" cy="24" r="23"/>
	<g>
		<path class="st0" d="M20,1c2.7,0,5.4,0,8.2,0c0.1,0.1,0.2,0.2,0.3,0.2c0.5,0.1,1,0.2,1.6,0.3c0.6,0.1,1.1,0.3,1.7,0.5
			c0.5,0.2,0.9,0.4,1.4,0.6C34.1,3,35,3.5,35.9,4c0.8,0.5,1.5,1,2.3,1.6c1.1,0.9,2.1,1.9,3.1,3c0.3,0.3,0.6,0.7,0.8,1.1
			c0.1,0.2,0.3,0.4,0.4,0.5c0.3,0.4,0.7,0.9,0.9,1.3c0.4,0.7,0.7,1.3,1.1,2c0.3,0.6,0.6,1.3,0.9,2c0.3,0.7,0.5,1.5,0.7,2.2
			c0.1,0.2,0.1,0.4,0.1,0.6c0,0.1,0.1,0.2,0.1,0.2c0,3.3,0,6.6,0,9.9c0,0.1-0.1,0.1-0.1,0.2c0,0.2-0.1,0.4-0.1,0.5
			c-0.3,0.8-0.5,1.7-0.8,2.5c-0.3,0.7-0.6,1.3-0.9,2c-0.2,0.5-0.4,1-0.7,1.4c-0.4,0.6-0.8,1.2-1.2,1.8c-0.6,0.9-1.3,1.6-2,2.4
			c-0.4,0.5-0.9,0.9-1.4,1.3c-0.6,0.5-1.2,1-1.8,1.5c-0.9,0.6-1.9,1.2-2.9,1.8c-0.7,0.4-1.5,0.7-2.3,1c-0.7,0.2-1.3,0.4-2,0.6
			c-0.1,0-0.1,0.1-0.2,0.1c-3.8,0-7.5,0-11.3,0c-0.1,0-0.1-0.1-0.2-0.1c-0.1,0-0.3,0-0.4-0.1c-0.9-0.3-1.8-0.6-2.7-1
			c-1-0.4-2-0.9-2.9-1.5c-1.4-0.8-2.6-1.8-3.8-3c-0.7-0.7-1.4-1.4-2-2.1c-0.5-0.6-1-1.3-1.4-2c-0.4-0.5-0.7-1.1-1-1.7
			c-0.3-0.7-0.6-1.4-0.9-2.1C3,31.4,2.8,31,2.7,30.6c-0.2-0.6-0.4-1.2-0.5-1.8C2.1,28.4,2,28.1,2,27.8c0-2.8,0-5.6,0-8.4
			c0-0.4,0.1-0.9,0.2-1.3c0.2-0.8,0.4-1.6,0.7-2.4c0.2-0.7,0.5-1.3,0.8-2c0.4-0.8,0.8-1.5,1.3-2.3c0.4-0.7,0.9-1.3,1.4-1.9
			c0.6-0.8,1.3-1.5,2-2.2c0.9-1,1.9-1.8,3-2.6c0.9-0.6,1.8-1.2,2.8-1.6c0.7-0.3,1.5-0.6,2.2-0.9c1.1-0.4,2.1-0.8,3.3-0.9
			C19.7,1.2,20,1.2,20,1z M35.3,31.6c0-0.5-0.2-1.1-0.4-1.7c-0.2-0.5-0.4-1.1-0.7-1.6c-0.2-0.4-0.4-0.9-0.5-1.3
			c-0.4-1-0.8-1.9-1.2-2.9c-0.3-0.7-0.6-1.4-0.9-2.1c-0.3-0.8-0.6-1.5-0.9-2.3c-0.3-0.8-0.6-1.5-1-2.3c-0.1-0.3-0.2-0.7-0.4-1
			c-0.3-0.6-0.6-1.2-0.9-1.8c-0.4-0.9-0.8-1.9-1.2-2.8c-0.3-0.7-0.6-1.4-0.8-2c-0.3-0.7-0.7-1.3-1.2-1.9c-0.5-0.5-1.2-0.6-1.8-0.3
			c-0.6,0.3-1,0.9-1.3,1.4c-0.2,0.3-0.4,0.7-0.5,1.1c-0.3,0.7-0.6,1.5-0.9,2.2c-0.2,0.4-0.3,0.8-0.5,1.2c-0.2,0.3-0.2,0.6-0.4,0.9
			c-0.5,1-0.8,2-1.3,3c-0.3,0.7-0.6,1.5-0.9,2.2c-0.1,0.3-0.2,0.6-0.4,0.9c-0.4,0.9-0.8,1.8-1.2,2.8c-0.2,0.6-0.5,1.2-0.7,1.8
			c-0.4,0.9-0.7,1.8-1.1,2.6c-0.3,0.6-0.5,1.2-0.8,1.8c-0.2,0.6-0.4,1.1-0.6,1.7c-0.1,0.2-0.1,0.4-0.1,0.6c0.1,0.5,0.1,1,0.4,1.4
			c0.3,0.4,0.6,0.8,0.9,1.1c0.5,0.5,1.2,0.7,1.9,0.9c0.4,0.1,0.4,0.1,0.6-0.3c0.2-0.6,0.5-1.1,0.7-1.7c0.3-0.7,0.5-1.5,0.8-2.2
			c0.3-0.8,0.5-1.5,0.8-2.3c0.3-0.8,0.6-1.6,0.8-2.3c0.2-0.5,0.4-1,0.6-1.6c0.3-0.9,0.6-1.7,0.9-2.6c0.3-0.9,0.6-1.7,0.9-2.6
			c0.2-0.6,0.5-1.1,0.9-1.5c0.6-0.6,1.4-0.6,1.9,0c0.2,0.2,0.4,0.5,0.5,0.8c0.2,0.3,0.3,0.7,0.5,1c0.2,0.6,0.4,1.1,0.6,1.7
			c0.2,0.5,0.4,1,0.5,1.4c0.3,0.8,0.5,1.5,0.8,2.3c0.3,0.7,0.6,1.4,0.8,2.1c0.4,1.1,0.7,2.1,1.1,3.2c0.2,0.5,0.4,0.9,0.5,1.4
			c0.3,0.9,0.7,1.9,1,2.8c0.1,0.4,0.2,0.4,0.5,0.3c0.9-0.1,1.7-0.5,2.3-1.1C35,33.5,35.3,32.7,35.3,31.6z"/>
		<path class="st0" d="M19.8,1C19.8,1,19.8,1,19.8,1C19.8,1,19.8,1,19.8,1C19.8,1,19.8,1,19.8,1z"/>
		<path class="st1" d="M35.3,31.6c0,1.1-0.3,1.9-1,2.6c-0.6,0.6-1.4,1-2.3,1.1c-0.4,0.1-0.4,0.1-0.5-0.3c-0.3-0.9-0.7-1.9-1-2.8
			c-0.2-0.5-0.4-0.9-0.5-1.4c-0.4-1.1-0.7-2.1-1.1-3.2c-0.3-0.7-0.6-1.4-0.8-2.1c-0.3-0.7-0.5-1.5-0.8-2.3c-0.2-0.5-0.4-1-0.5-1.4
			c-0.2-0.6-0.4-1.1-0.6-1.7c-0.1-0.4-0.3-0.7-0.5-1c-0.2-0.3-0.3-0.6-0.5-0.8c-0.5-0.6-1.3-0.7-1.9,0c-0.4,0.4-0.7,1-0.9,1.5
			c-0.3,0.8-0.6,1.7-0.9,2.6c-0.3,0.9-0.6,1.7-0.9,2.6c-0.2,0.5-0.4,1-0.6,1.6c-0.3,0.8-0.6,1.5-0.8,2.3c-0.3,0.8-0.5,1.5-0.8,2.3
			c-0.3,0.7-0.5,1.5-0.8,2.2c-0.2,0.6-0.4,1.1-0.7,1.7c-0.2,0.4-0.2,0.4-0.6,0.3c-0.7-0.2-1.4-0.4-1.9-0.9c-0.4-0.3-0.6-0.7-0.9-1.1
			c-0.3-0.4-0.3-0.9-0.4-1.4c0-0.2,0-0.4,0.1-0.6c0.2-0.6,0.4-1.2,0.6-1.7c0.2-0.6,0.5-1.2,0.8-1.8c0.4-0.9,0.8-1.8,1.1-2.6
			c0.2-0.6,0.5-1.2,0.7-1.8c0.4-0.9,0.8-1.9,1.2-2.8c0.1-0.3,0.2-0.6,0.4-0.9c0.4-0.7,0.6-1.5,0.9-2.2c0.4-1,0.8-2,1.3-3
			c0.1-0.3,0.2-0.6,0.4-0.9c0.2-0.4,0.3-0.8,0.5-1.2c0.3-0.7,0.6-1.5,0.9-2.2c0.2-0.4,0.3-0.7,0.5-1.1c0.3-0.6,0.7-1.1,1.3-1.4
			c0.6-0.3,1.3-0.2,1.8,0.3c0.6,0.5,1,1.1,1.2,1.9c0.3,0.7,0.6,1.4,0.8,2c0.4,0.9,0.8,1.9,1.2,2.8c0.3,0.6,0.6,1.2,0.9,1.8
			c0.1,0.3,0.2,0.7,0.4,1c0.3,0.8,0.6,1.5,1,2.3c0.3,0.8,0.6,1.5,0.9,2.3c0.3,0.7,0.6,1.4,0.9,2.1c0.4,1,0.8,1.9,1.2,2.9
			c0.2,0.4,0.4,0.9,0.5,1.3c0.2,0.5,0.4,1.1,0.7,1.6C35.1,30.5,35.3,31.1,35.3,31.6z"/>
	</g>
</g>
</svg>
