<?xml version="1.0" encoding="utf-8"?>
<!-- Generator: Adobe Illustrator 27.4.1, SVG Export Plug-In . SVG Version: 6.00 Build 0)  -->
<svg version="1.1" id="Layer_1" xmlns="http://www.w3.org/2000/svg" xmlns:xlink="http://www.w3.org/1999/xlink" x="0px" y="0px"
	 viewBox="0 0 48 48" style="enable-background:new 0 0 48 48;" xml:space="preserve">
<style type="text/css">
	.st0{fill-rule:evenodd;clip-rule:evenodd;fill:#6D52A2;}
	.st1{fill-rule:evenodd;clip-rule:evenodd;fill:url(#SVGID_1_);}
	.st2{fill-rule:evenodd;clip-rule:evenodd;fill:url(#SVGID_00000153699470299144035970000013980138706887569578_);}
	.st3{fill-rule:evenodd;clip-rule:evenodd;fill:url(#SVGID_00000016049749734486805110000003562613074916842408_);}
	.st4{fill-rule:evenodd;clip-rule:evenodd;fill:url(#SVGID_00000163073629586597207330000017307001287051966852_);}
	.st5{fill:#FFFFFF;}
</style>
<g transform="matrix(.26718 0 0 .26718 0 0)">
	<circle class="st0" cx="89.8" cy="89.8" r="89.8"/>
	
		<radialGradient id="SVGID_1_" cx="-1050.269" cy="1574.5498" r="9.455483e-02" gradientTransform="matrix(255.4228 -298.1754 -298.1754 -255.4228 737789.3125 89170.8203)" gradientUnits="userSpaceOnUse">
		<stop  offset="0" style="stop-color:#5D55A4"/>
		<stop  offset="1" style="stop-color:#5D55A4;stop-opacity:0"/>
	</radialGradient>
	<circle class="st1" cx="89.8" cy="89.8" r="89.8"/>
	
		<radialGradient id="SVGID_00000018206107908374505160000006148260599517398202_" cx="-1048.748" cy="1575.259" r="9.455483e-02" gradientTransform="matrix(255.8274 361.3582 361.3582 -255.8274 -300886.625 781988.5625)" gradientUnits="userSpaceOnUse">
		<stop  offset="0" style="stop-color:#26BEC8"/>
		<stop  offset="1" style="stop-color:#26BEC8;stop-opacity:0"/>
	</radialGradient>
	
		<circle style="fill-rule:evenodd;clip-rule:evenodd;fill:url(#SVGID_00000018206107908374505160000006148260599517398202_);" cx="89.8" cy="89.8" r="89.8"/>
	
		<radialGradient id="SVGID_00000140697731813630918320000010427828354562244240_" cx="-1050.1692" cy="1573.3933" r="9.455483e-02" gradientTransform="matrix(273.3251 -275.1954 -126.5661 -125.7058 486210.5938 -91057.8672)" gradientUnits="userSpaceOnUse">
		<stop  offset="0" style="stop-color:#5D55A4"/>
		<stop  offset="1" style="stop-color:#5D55A4;stop-opacity:0"/>
	</radialGradient>
	
		<circle style="fill-rule:evenodd;clip-rule:evenodd;fill:url(#SVGID_00000140697731813630918320000010427828354562244240_);" cx="89.8" cy="89.8" r="89.8"/>
	
		<radialGradient id="SVGID_00000132055886004747518230000006309397264149288367_" cx="-1048.7236" cy="1575.5054" r="9.455483e-02" gradientTransform="matrix(159.239 366.571 614.0892 -266.7608 -800429.5625 804738.875)" gradientUnits="userSpaceOnUse">
		<stop  offset="0" style="stop-color:#26BEC8;stop-opacity:0.73"/>
		<stop  offset="0" style="stop-color:#26BEC8"/>
		<stop  offset="1" style="stop-color:#26BEC8;stop-opacity:0"/>
	</radialGradient>
	
		<circle style="fill-rule:evenodd;clip-rule:evenodd;fill:url(#SVGID_00000132055886004747518230000006309397264149288367_);" cx="89.8" cy="89.8" r="89.8"/>
</g>
<path class="st5" d="M42.2,26.2c-0.1,0-0.1,0-0.1,0.1c-0.4,1.1-0.9,1.7-1.3,1.7c-0.2,0-0.3-0.3-0.3-0.7c0-1.1,0.6-3.3,1-4.3
	c0-0.1,0.1-0.2,0.1-0.3c0-0.3-0.2-0.4-0.6-0.4c-0.4,0-0.9,0.2-1.4,1c-0.2-0.7-0.6-1-1.3-1c-0.8,0-1.5,0.5-2.1,1.3
	c-0.6,0.8-1.3,1.1-1.9,0.9c0.4-1,0.5-1.7,0.5-2.2c0-0.8-0.4-1.3-1.1-1.3c-1,0-1.6,1-1.6,2c0,0.8,0.4,1.6,1.1,2
	c-0.7,1.5-1.6,2.8-2,2.8c-0.5,0-0.6-2.3-0.6-3.9c0-0.9,0.1-1,0.1-1.3c0-0.2-0.1-0.3-0.5-0.3c-1,0-1.3,0.8-1.3,1.8
	c0,0.4-0.1,0.7-0.2,1.1c-0.4,1.5-1.3,2.6-1.8,2.6c-0.3,0-0.3-0.3-0.3-0.6c0-1.1,0.6-2.4,0.6-3.5c0-0.8-0.4-1.4-1.1-1.4
	c-0.8,0-1.9,1-2.9,2.8c0.3-1.4,0.5-2.7-0.5-2.7c-0.2,0-0.4,0.1-0.6,0.2c-0.1,0.1-0.2,0.2-0.2,0.3c0.1,1.5-1.2,5.2-2.4,5.2
	c-0.2,0-0.3-0.2-0.3-0.6c0-1.1,0.6-3.3,1-4.3c0-0.1,0.1-0.2,0.1-0.3c0-0.3-0.2-0.4-0.6-0.4c-0.4,0-0.9,0.2-1.4,1
	c-0.2-0.7-0.6-1-1.3-1c-1.1,0-2.3,1.2-2.8,2.7c-0.7,2-2.2,3.9-4.1,3.9c-1.8,0-2.7-1.5-2.7-3.8c0-3.3,2.5-6.1,4.3-6.1
	c0.9,0,1.3,0.6,1.3,1.4c0,1-0.6,1.5-0.6,1.9c0,0.1,0.1,0.2,0.3,0.2c0.8,0,1.7-0.9,1.7-2.2c0-1.3-1-2.2-2.9-2.2c-3,0-6,3-6,6.9
	c0,3.1,1.5,5,4.2,5c1.8,0,3.4-1.4,4.2-3c0.1,1.4,0.7,2.1,1.6,2.1c0.8,0,1.5-0.5,2-1.4c0.2,0.9,0.7,1.4,1.4,1.4
	c0.8,0,1.4-0.5,2.1-1.4c0,0.7,0.2,1.4,0.8,1.4c0.3,0,0.6-0.1,0.7-0.3c0.7-2.7,2.3-5,2.8-5c0.1,0,0.2,0.1,0.2,0.3
	c0,0.7-0.5,2.3-0.5,3.2c0,1,0.4,1.7,1.4,1.7c1,0,2.1-1.3,2.8-3.1c0.2,1.7,0.7,3.1,1.4,3.1c0.9,0,2.5-1.9,3.5-3.9
	c0.4,0,0.9,0,1.5-0.4c-0.2,0.6-0.4,1.2-0.4,1.9c0,1.9,0.9,2.4,1.7,2.4c0.8,0,1.5-0.5,2-1.4c0.2,0.8,0.6,1.4,1.4,1.4
	c1.3,0,2.3-1.3,2.3-2.3C42.5,26.3,42.4,26.2,42.2,26.2L42.2,26.2z M16.3,27.9c-0.5,0-0.7-0.5-0.7-1.3c0-1.3,0.9-3.5,1.9-3.5
	c0.4,0,0.6,0.5,0.6,1.1C18,25.6,17.2,27.9,16.3,27.9L16.3,27.9z M33.6,24c-0.3-0.4-0.4-0.8-0.4-1.3c0-0.5,0.2-1,0.4-1
	c0.2,0,0.3,0.2,0.3,0.6C33.9,22.8,33.7,23.6,33.6,24z M37.5,27.9c-0.5,0-0.7-0.6-0.7-1.3c0-1.3,0.9-3.5,1.9-3.5
	c0.4,0,0.6,0.5,0.6,1.1C39.2,25.6,38.4,27.9,37.5,27.9L37.5,27.9z"/>
</svg>
