<?xml version="1.0" encoding="utf-8"?>
<!-- Generator: Adobe Illustrator 27.4.1, SVG Export Plug-In . SVG Version: 6.00 Build 0)  -->
<svg version="1.1" id="Layer_1" xmlns="http://www.w3.org/2000/svg" xmlns:xlink="http://www.w3.org/1999/xlink" x="0px" y="0px"
	 viewBox="0 0 48 48" style="enable-background:new 0 0 48 48;" xml:space="preserve">
<style type="text/css">
	.st0{fill:#185C37;}
	.st1{fill:#21A366;}
	.st2{fill:#107C41;}
	.st3{opacity:0.1;enable-background:new    ;}
	.st4{opacity:0.2;enable-background:new    ;}
	.st5{fill:url(#SVGID_1_);}
	.st6{fill:#FFFFFF;}
	.st7{fill:#33C481;}
</style>
<g>
	<path class="st0" d="M30,22.9l-18.6-3.3v24.3c0,1.1,0.9,2,2,2h32.2c1.1,0,2-0.9,2-2v-9L30,22.9z"/>
	<path class="st1" d="M30,2H13.4c-1.1,0-2,0.9-2,2v9L30,24l9.9,3.3l7.7-3.3V13L30,2z"/>
	<path class="st2" d="M11.4,13H30v11H11.4V13z"/>
	<path class="st3" d="M24.7,10.8H11.4v27.4h13.3c1.1,0,2-0.9,2-2V12.8C26.7,11.7,25.8,10.8,24.7,10.8L24.7,10.8z"/>
	<path class="st4" d="M23.6,11.9H11.4v27.4h12.2c1.1,0,2-0.9,2-2V13.9C25.6,12.8,24.7,11.9,23.6,11.9L23.6,11.9z"/>
	<path class="st4" d="M23.6,11.9H11.4v25.2h12.2c1.1,0,2-0.9,2-2V13.9C25.6,12.8,24.7,11.9,23.6,11.9L23.6,11.9z"/>
	<path class="st4" d="M22.5,11.9H11.4v25.2h11.2c1.1,0,2-0.9,2-2V13.9C24.5,12.8,23.6,11.9,22.5,11.9L22.5,11.9z"/>
	
		<linearGradient id="SVGID_1_" gradientUnits="userSpaceOnUse" x1="979.9827" y1="1406.0907" x2="1042.8707" y2="1515.01" gradientTransform="matrix(0.2504 0 0 0.2504 -240.7692 -341.7472)">
		<stop  offset="0" style="stop-color:#18884F"/>
		<stop  offset="0.5" style="stop-color:#117E43"/>
		<stop  offset="1" style="stop-color:#0B6631"/>
	</linearGradient>
	<path class="st5" d="M2.4,11.9h20.1c1.1,0,2,0.9,2,2V34c0,1.1-0.9,2-2,2H2.4c-1.1,0-2-0.9-2-2V13.9C0.4,12.8,1.3,11.9,2.4,11.9z"/>
	<path class="st6" d="M6.6,30.5l4.2-6.6L7,17.4h3.1l2.1,4.2c0.2,0.4,0.3,0.7,0.4,0.9h0c0.1-0.3,0.3-0.6,0.4-0.9l2.3-4.1h2.9l-4,6.5
		l4.1,6.6h-3l-2.4-4.6c-0.1-0.2-0.2-0.4-0.3-0.6h0c-0.1,0.2-0.2,0.4-0.3,0.6l-2.5,4.6L6.6,30.5z"/>
	<path class="st7" d="M45.6,2H30v11h17.5V4C47.6,2.9,46.7,2,45.6,2z"/>
	<path class="st2" d="M30,24h17.5v11H30V24z"/>
</g>
</svg>
