<?xml version="1.0" encoding="utf-8"?>
<!-- Generator: Adobe Illustrator 27.4.1, SVG Export Plug-In . SVG Version: 6.00 Build 0)  -->
<svg version="1.1" id="Layer_1" xmlns="http://www.w3.org/2000/svg" xmlns:xlink="http://www.w3.org/1999/xlink" x="0px" y="0px"
	 viewBox="0 0 40 40" style="enable-background:new 0 0 40 40;" xml:space="preserve">
<style type="text/css">
	.st0{fill:#FFFFFF;}
	.st1{fill:#0E1030;}
	.st2{fill:#EE3A39;}
	.st3{fill:#46C7F4;}
	.st4{fill:#FFCC33;}
</style>
<path class="st0" d="M8,0h24c4.4,0,8,3.6,8,8v24c0,4.4-3.6,8-8,8H8c-4.4,0-8-3.6-8-8V8C0,3.6,3.6,0,8,0z"/>
<path class="st1" d="M31.9,27.1c0,0.6-0.1,1.1-0.2,1.7H29v4.6c-0.4,0.4-0.8,0.7-1.3,1.1H12.3c-0.3-0.2-0.6-0.4-0.9-0.7
	c0,0,0-0.1,0-0.1v-4.9H8.3c-0.1-0.6-0.2-1.1-0.2-1.7c0-2.6,1.2-4.9,3.3-6.7c0.1-0.1,0.1-0.1,0.2-0.2c0-0.2,0.1-0.5,0.1-0.7
	c0.4-2,1.1-3.9,2-5.4c0,0,0,0,0,0c0.1-0.1,0.1-0.2,0.2-0.3c0.2-0.2,0.4-0.3,0.6-0.3c0.2,0,0.5,0.1,0.6,0.3c0,0,0,0,0,0
	c0,0,0.1,0.1,0.1,0.1c0.7,1.1,1.2,2.3,1.6,3.7c0.2-0.1,0.4-0.1,0.6-0.1c0.8-0.1,1.7-0.2,2.5-0.2c1.3,0,2.5,0.2,3.7,0.5
	c0-0.1,0.1-0.3,0.1-0.4c0.5-1.3,1.2-2.4,2-3.4c0.1-0.2,0.3-0.3,0.4-0.4c0.1-0.1,0.1-0.1,0.2-0.2c0.1-0.1,0.3-0.2,0.5-0.1
	c0.2,0,0.3,0.1,0.4,0.3c0,0,0,0,0,0c1,1.5,1.6,3.6,1.7,5.9c0,0.4,0,0.7,0,1.1c0,0,0.1,0.1,0.1,0.1c1.5,1.4,2.5,3.2,2.8,5.2
	C31.8,26.4,31.9,26.8,31.9,27.1z"/>
<path class="st2" d="M11.4,11.2v17.7H6.5c-0.4,0-0.8-0.4-0.8-0.8V12c0-0.4,0.4-0.8,0.8-0.8H11.4z"/>
<path class="st3" d="M34.7,12V28c0,0.4-0.4,0.8-0.8,0.8H29V11.2h4.9C34.4,11.2,34.7,11.5,34.7,12z"/>
<path class="st1" d="M29,11.2H11.4V6.3c0-0.4,0.4-0.8,0.8-0.8h16.1c0.4,0,0.8,0.4,0.8,0.8V11.2z"/>
<path class="st4" d="M29,28.8v4.9c0,0.4-0.4,0.8-0.8,0.8H12.2c-0.4,0-0.7-0.3-0.8-0.7c0,0,0-0.1,0-0.1v-4.9H29z"/>
<circle class="st0" cx="16.6" cy="23.5" r="2.5"/>
<circle class="st1" cx="17.4" cy="23.5" r="1.4"/>
<circle class="st0" cx="25.4" cy="23.5" r="2.5"/>
<circle class="st1" cx="26.2" cy="23.5" r="1.4"/>
</svg>
