<?xml version="1.0" encoding="utf-8"?>
<!-- Generator: Adobe Illustrator 27.4.1, SVG Export Plug-In . SVG Version: 6.00 Build 0)  -->
<svg version="1.1" id="Layer_1" xmlns="http://www.w3.org/2000/svg" xmlns:xlink="http://www.w3.org/1999/xlink" x="0px" y="0px"
	 viewBox="0 0 48 48" style="enable-background:new 0 0 48 48;" xml:space="preserve">
<style type="text/css">
	.st0{fill:#320000;}
	.st1{fill:#330000;}
	.st2{fill:#FB9700;}
</style>
<g>
	<path class="st0" d="M39.2,47.1H8.8c-4.7,0-8.5-3.8-8.5-8.5V9.4c0-4.7,3.8-8.5,8.5-8.5h30.4c4.7,0,8.5,3.8,8.5,8.5v29.3
		C47.7,43.3,43.9,47.1,39.2,47.1z"/>
	<g>
		<path class="st1" d="M34.7,12.8c-1.5,0-2.5,1-2.5,2.5c0,1.5,1,2.5,2.4,2.5c1.5,0,2.5-1,2.5-2.6C37.1,13.7,36.1,12.8,34.7,12.8z
			 M36.8,19.9c0-0.4-0.1-0.6-0.6-0.6c-1.1,0-2.1,0-3.2,0c-0.6,0-0.7,0.2-0.7,0.7c0,2.4,0,4.7,0,7.1c0,2.4,0,4.8,0,7.3
			c0,0.4,0,0.7,0.6,0.7c1.1,0,2.2,0,3.3,0c0.4,0,0.5-0.2,0.5-0.6C36.8,29.7,36.8,24.8,36.8,19.9z M30.2,34.5
			c-0.4-1.1-0.8-2.3-1.2-3.4c-1.9-5.3-3.8-10.7-5.7-16c-0.1-0.3-0.1-0.7-0.6-0.7c-1.5,0-3.1,0-4.6,0c-0.3,0-0.5,0.1-0.5,0.5
			c0,0.8-0.3,1.6-0.5,2.3c-2,5.8-4,11.5-6,17.3c-0.3,0.8-0.2,0.8,0.6,0.8c0.9,0,1.9,0,2.8,0c0.5,0,0.8-0.1,0.9-0.6
			c0.4-1.3,0.8-2.5,1.2-3.7c0.1-0.4,0.3-0.6,0.8-0.6c2.1,0,4.1,0,6.2,0c0.4,0,0.6,0.1,0.7,0.5c0.2,0.8,0.5,1.5,0.8,2.2
			c0.7,2.2,0.7,2.2,3,2.2c0.5,0,1.1,0,1.6,0C30.2,35.2,30.4,35,30.2,34.5z M22.1,26.2c-1.2,0-2.4,0-3.6,0c-0.6,0-0.6-0.2-0.4-0.6
			c0.8-2.5,1.6-4.9,2.3-7.6c0.2,0.9,0.4,1.6,0.7,2.3c0.5,1.7,1.1,3.5,1.7,5.2C22.8,26.1,22.7,26.3,22.1,26.2z"/>
		<path class="st2" d="M30.2,34.5c-0.4-1.1-0.8-2.3-1.2-3.4c-1.9-5.3-3.8-10.7-5.7-16c-0.1-0.3-0.1-0.7-0.6-0.7c-1.5,0-3.1,0-4.6,0
			c-0.3,0-0.5,0.1-0.5,0.5c0,0.8-0.3,1.6-0.5,2.3c-2,5.8-4,11.5-6,17.3c-0.3,0.8-0.2,0.8,0.6,0.8c0.9,0,1.9,0,2.8,0
			c0.5,0,0.8-0.1,0.9-0.6c0.4-1.3,0.8-2.5,1.2-3.7c0.1-0.4,0.3-0.6,0.8-0.6c2.1,0,4.1,0,6.2,0c0.4,0,0.6,0.1,0.7,0.5
			c0.2,0.8,0.5,1.5,0.8,2.2c0.7,2.2,0.7,2.2,3,2.2c0.5,0,1.1,0,1.6,0C30.2,35.2,30.4,35,30.2,34.5z M22.1,26.2c-1.2,0-2.4,0-3.6,0
			c-0.6,0-0.6-0.2-0.4-0.6c0.8-2.5,1.6-4.9,2.3-7.6c0.2,0.9,0.4,1.6,0.7,2.3c0.5,1.7,1.1,3.5,1.7,5.2C22.8,26.1,22.7,26.3,22.1,26.2
			z"/>
		<path class="st2" d="M32.4,27.2c0-2.4,0-4.7,0-7.1c0-0.5,0.1-0.8,0.7-0.7c1.1,0,2.1,0,3.2,0c0.4,0,0.6,0.1,0.6,0.6
			c0,4.9,0,9.8,0,14.7c0,0.4-0.1,0.6-0.5,0.6c-1.1,0-2.2,0-3.3,0c-0.5,0-0.6-0.3-0.6-0.7C32.4,32.1,32.4,29.6,32.4,27.2z"/>
		<path class="st2" d="M34.7,12.8c1.5,0,2.4,0.9,2.4,2.4c0,1.5-1,2.6-2.5,2.6c-1.5,0-2.4-1-2.4-2.5C32.2,13.8,33.2,12.8,34.7,12.8z"
			/>
	</g>
</g>
</svg>
