<?xml version="1.0" encoding="utf-8"?>
<!-- Generator: Adobe Illustrator 27.4.1, SVG Export Plug-In . SVG Version: 6.00 Build 0)  -->
<svg version="1.1" id="Layer_1" xmlns="http://www.w3.org/2000/svg" xmlns:xlink="http://www.w3.org/1999/xlink" x="0px" y="0px"
	 viewBox="0 0 48 48" style="enable-background:new 0 0 48 48;" xml:space="preserve">
<style type="text/css">
	.st0{fill:#49011F;}
	.st1{fill:#FF3265;}
</style>
<g>
	<path class="st0" d="M0.5,39.4c0-10.2,0-20.4,0-30.6c0,0,0.1,0,0.1,0c0-1.9,0.8-3.5,2-4.9c1.7-1.9,3.9-2.8,6.5-2.8
		c10.1,0,20.3,0,30.4,0.1c1.3,0,2.6,0.3,3.7,0.9c2.5,1.4,3.9,3.5,4.2,6.4c0,0.1,0.1,0.2,0.1,0.3c0,10.1,0,20.3,0,30.4
		c0,0.1,0,0.2,0,0.3c0,0.1,0,0.1,0,0.2c-0.1,0.3-0.2,0.6-0.3,0.8c-0.3,1.6-1.1,3-2.2,4.1c-1.4,1.4-3.1,2.3-5,2.3
		c0,0,0.1,0.1,0.1,0.1c-10.8,0-21.6,0-32.3,0c-0.1-0.1-0.2-0.1-0.3-0.2c-1.7-0.2-3.1-0.9-4.3-2c-1.6-1.4-2.6-3.2-2.6-5.4
		C0.6,39.3,0.5,39.3,0.5,39.4z M35.2,20.9c0-3.1,0-6.3,0-9.4c0-0.1-0.2-0.3-0.4-0.4c-1.2,0-2.4,0-3.6,0c-0.3,0-0.5,0.1-0.5,0.5
		c0,1.9,0,3.8,0,5.6c0,0.1-0.1,0.3-0.2,0.3c-0.1,0-0.3,0-0.5,0c-1.2,0.1-2.5,0.1-3.6,0.5c-1,0.3-1.9,0.9-2.8,1.5
		c-1.5,1.1-2.4,2.6-2.8,4.4c-0.3,1.2-0.3,2.5-0.1,3.7c0.3,1.9,1.2,3.4,2.7,4.6c1.6,1.2,3.6,1.7,5.6,1.7c1.9,0,3.7-0.4,5.5-1
		c0.6-0.2,0.8-0.5,0.8-1.1c0-0.5-0.1-1.1-0.1-1.6C35.2,27.1,35.2,24,35.2,20.9z M13.2,23.2c0,3.3,0,6.5,0,9.8c0,0.5,0.2,0.6,0.6,0.6
		c1.1,0,2.2,0,3.3,0c0.3,0,0.5-0.1,0.5-0.5c0-2.3,0-4.5,0-6.8c0-4.3,0-8.7,0-13c0-0.3-0.1-0.5-0.5-0.5c-1.2,0-2.3,0-3.5,0
		c-0.4,0-0.5,0.1-0.5,0.5C13.2,16.6,13.2,19.9,13.2,23.2z"/>
	<path class="st1" d="M47.4,8.5c0,0.1,0.1,0.1,0.1,0.2c0,0,0,0,0.1,0c0,0,0,0.1,0,0.1C47.5,8.6,47.4,8.5,47.4,8.5z"/>
	<path class="st1" d="M0.5,8.6c0,0.1,0,0.1,0.1,0.2c0,0-0.1,0-0.1,0C0.5,8.7,0.5,8.6,0.5,8.6C0.5,8.6,0.5,8.6,0.5,8.6z"/>
	<path class="st1" d="M47.5,39.4c0-0.1,0-0.2,0-0.3C47.5,39.2,47.5,39.3,47.5,39.4z"/>
	<path class="st0" d="M0.5,39.6C0.5,39.7,0.5,39.7,0.5,39.6c0,0.1,0,0.1,0,0.2C0.5,39.7,0.5,39.7,0.5,39.6z"/>
	<path class="st0" d="M0.5,8.6C0.5,8.6,0.5,8.6,0.5,8.6c-0.1,0-0.1-0.1-0.1-0.1C0.5,8.5,0.5,8.5,0.5,8.6z"/>
	<path class="st0" d="M47.5,8.6C47.5,8.6,47.5,8.6,47.5,8.6c0,0,0-0.1,0-0.2c0,0,0,0,0,0.1C47.5,8.6,47.5,8.6,47.5,8.6z"/>
	<path class="st1" d="M47.5,8.4C47.5,8.3,47.5,8.3,47.5,8.4C47.5,8.3,47.5,8.3,47.5,8.4z"/>
	<path class="st1" d="M47.5,8.5C47.5,8.5,47.5,8.5,47.5,8.5C47.5,8.5,47.5,8.5,47.5,8.5C47.5,8.5,47.5,8.5,47.5,8.5z"/>
	<path class="st0" d="M40.3,46.9C40.3,46.9,40.3,46.9,40.3,46.9C40.3,46.9,40.3,46.9,40.3,46.9C40.3,46.9,40.3,46.9,40.3,46.9z"/>
	<path class="st1" d="M35.2,20.9c0,3.1,0,6.2,0,9.3c0,0.5,0.1,1.1,0.1,1.6c0,0.6-0.1,0.9-0.8,1.1c-1.8,0.6-3.6,1-5.5,1
		c-2,0-3.9-0.4-5.6-1.7c-1.5-1.1-2.4-2.7-2.7-4.6c-0.2-1.3-0.2-2.5,0.1-3.7c0.4-1.8,1.3-3.3,2.8-4.4c0.9-0.6,1.8-1.2,2.8-1.5
		c1.2-0.3,2.4-0.3,3.6-0.5c0.2,0,0.3,0,0.5,0c0.1,0,0.2-0.2,0.2-0.3c0-1.9,0-3.8,0-5.6c0-0.3,0.1-0.5,0.5-0.5c1.2,0,2.4,0,3.6,0
		c0.1,0,0.4,0.2,0.4,0.4C35.2,14.6,35.2,17.8,35.2,20.9z M30.8,25.6C30.8,25.6,30.8,25.6,30.8,25.6c0-1.4,0-2.7,0-4.1
		c0-0.1-0.2-0.3-0.3-0.3c-0.6,0-1.2-0.1-1.7,0c-1.6,0.3-2.8,1.2-3.3,2.7c-0.3,0.8-0.3,1.8-0.2,2.7c0.1,1.2,0.7,2.3,1.8,2.9
		c1,0.6,2.2,0.6,3.3,0.5c0.3,0,0.4-0.2,0.4-0.5C30.8,28.2,30.8,26.9,30.8,25.6z"/>
	<path class="st1" d="M13.2,23.2c0-3.3,0-6.5,0-9.8c0-0.4,0.1-0.5,0.5-0.5c1.2,0,2.3,0,3.5,0c0.4,0,0.5,0.1,0.5,0.5
		c0,4.3,0,8.7,0,13c0,2.3,0,4.5,0,6.8c0,0.3-0.1,0.5-0.5,0.5c-1.1,0-2.2,0-3.3,0c-0.5,0-0.6-0.1-0.6-0.6
		C13.2,29.7,13.2,26.4,13.2,23.2z"/>
	<path class="st0" d="M30.8,25.6c0,1.3,0,2.6,0,3.8c0,0.3-0.1,0.5-0.4,0.5c-1.1,0.1-2.3,0.1-3.3-0.5c-1.1-0.6-1.7-1.7-1.8-2.9
		c-0.1-0.9-0.1-1.9,0.2-2.7c0.5-1.5,1.7-2.4,3.3-2.7c0.6-0.1,1.2,0,1.7,0c0.1,0,0.3,0.2,0.3,0.3C30.8,22.9,30.8,24.3,30.8,25.6
		C30.8,25.6,30.8,25.6,30.8,25.6z"/>
</g>
</svg>
