<?xml version="1.0" encoding="utf-8"?>
<!-- Generator: Adobe Illustrator 27.4.1, SVG Export Plug-In . SVG Version: 6.00 Build 0)  -->
<svg version="1.1" id="Layer_1" xmlns="http://www.w3.org/2000/svg" xmlns:xlink="http://www.w3.org/1999/xlink" x="0px" y="0px"
	 viewBox="0 0 48 48" style="enable-background:new 0 0 48 48;" xml:space="preserve">
<style type="text/css">
	.st0{fill:#001E36;}
	.st1{fill:#31A8FF;}
</style>
<g>
	<path class="st0" d="M0.9,39.1c0-10,0-20.1,0-30.1C1,8.7,1,8.5,1,8.3c0.3-1.9,1.3-3.6,2.7-4.8c1.2-1,2.5-1.6,4-1.9
		c0.2,0,0.4-0.1,0.5-0.1c10.6,0,21.1,0,31.7,0c0.1,0,0.2,0.1,0.3,0.1c3.5,0.7,6,3.2,6.6,6.7c0,0.1,0.1,0.2,0.1,0.3
		c0,10.2,0,20.5,0,30.7c0,0.1-0.1,0.2-0.1,0.2c-0.6,3.5-3.2,6.2-6.8,6.8c-0.1,0-0.2,0.1-0.4,0.1c-10.6,0-21.2,0-31.8,0
		c-0.1,0-0.2-0.1-0.2-0.1c-3.4-0.6-5.6-2.6-6.7-5.9c-0.1-0.4-0.2-0.7-0.3-1.1c0,0,0-0.1,0-0.1c0,0,0.1-0.1,0.1-0.1
		C1,39.2,1,39.1,0.9,39.1z M12.7,23.1c0,3.2,0,6.4,0,9.6c0,0.5,0.1,0.6,0.6,0.6c4,0,7.9,0,11.9,0c0.1,0,0.3-0.2,0.4-0.3
		c0.2-1.1,0.3-2.1,0.6-3.2c0.1-0.4-0.1-0.5-0.4-0.5c-2.8,0-5.6,0-8.4,0c-0.1,0-0.3-0.2-0.3-0.3c0-5.3,0-10.5,0-15.8
		c0-0.1-0.2-0.2-0.3-0.2c-1.2,0-2.4,0-3.6,0c-0.1,0-0.4,0.3-0.4,0.4C12.6,16.7,12.7,19.9,12.7,23.1z M32.3,19.9c0-0.4-0.1-0.7-0.1-1
		c-0.1-0.6-0.2-1.1-1-1c-0.9,0.1-1.9,0-2.8,0c-0.1,0-0.2,0.1-0.2,0.2c0,0.5,0,0.9,0,1.4c0,1.5,0.1,3.1,0.1,4.6c0,2.9,0,5.9,0,8.8
		c0,0.1,0.3,0.4,0.4,0.4c1.2,0,2.3,0,3.5,0c0.1,0,0.4-0.3,0.4-0.4c0-3.1,0-6.2,0-9.3c0-0.2,0.2-0.6,0.3-0.7c0.6-0.4,1.3-0.7,2-0.9
		c0.7-0.2,1.5-0.1,2.3-0.2c0.1,0,0.3-0.2,0.4-0.3c0-1.1,0-2.3,0-3.4c0-0.2-0.2-0.5-0.3-0.5c-0.3,0-0.7,0-1.1,0.1
		C34.6,17.9,33.4,18.8,32.3,19.9z"/>
	<path d="M0.9,39.1c0,0,0.1,0.1,0.1,0.1c0,0-0.1,0.1-0.1,0.1C0.9,39.2,0.9,39.2,0.9,39.1z"/>
	<path class="st1" d="M12.7,23.1c0-3.2,0-6.5,0-9.7c0-0.1,0.3-0.4,0.4-0.4c1.2,0,2.4,0,3.6,0c0.1,0,0.3,0.2,0.3,0.2
		c0,5.3,0,10.5,0,15.8c0,0.1,0.2,0.3,0.3,0.3c2.8,0,5.6,0,8.4,0c0.4,0,0.5,0.1,0.4,0.5c-0.2,1.1-0.4,2.1-0.6,3.2
		c0,0.1-0.2,0.3-0.4,0.3c-4,0-7.9,0-11.9,0c-0.5,0-0.6-0.1-0.6-0.6C12.7,29.5,12.7,26.3,12.7,23.1z"/>
	<path class="st1" d="M32.3,19.9c1.1-1.2,2.3-2,3.8-2.2c0.3-0.1,0.7-0.1,1.1-0.1c0.1,0,0.3,0.3,0.3,0.5c0,1.1,0,2.3,0,3.4
		c0,0.1-0.2,0.3-0.4,0.3c-0.8,0.1-1.6,0-2.3,0.2c-0.7,0.2-1.3,0.6-2,0.9c-0.2,0.1-0.3,0.4-0.3,0.7c0,3.1,0,6.2,0,9.3
		c0,0.1-0.3,0.4-0.4,0.4c-1.2,0-2.3,0-3.5,0c-0.1,0-0.4-0.3-0.4-0.4c0-2.9,0-5.9,0-8.8c0-1.5,0-3.1-0.1-4.6c0-0.5,0-0.9,0-1.4
		c0-0.1,0.1-0.2,0.2-0.2c0.9,0,1.9,0,2.8,0c0.8-0.1,1,0.4,1,1C32.2,19.3,32.3,19.6,32.3,19.9z"/>
</g>
</svg>
