<?xml version="1.0" encoding="utf-8"?>
<!-- Generator: Adobe Illustrator 27.4.1, SVG Export Plug-In . SVG Version: 6.00 Build 0)  -->
<svg version="1.1" id="Layer_1" xmlns="http://www.w3.org/2000/svg" xmlns:xlink="http://www.w3.org/1999/xlink" x="0px" y="0px"
	 viewBox="0 0 40 41" style="enable-background:new 0 0 40 41;" xml:space="preserve">
<style type="text/css">
	.st0{fill:#FFFFFF;}
	.st1{fill:#EE3A39;}
	.st2{fill:#46C7F4;}
	.st3{fill:#FFCC33;}
	.st4{fill:#0E1030;}
</style>
<path class="st0" d="M34.3,29.2c0,0.7-0.1,1.4-0.2,2.1h-3.2v5.6c-0.5,0.5-1,0.9-1.6,1.3h-19c-0.4-0.3-0.7-0.5-1.1-0.8
	c0-0.1,0-0.1,0-0.2v-6H5.4c-0.1-0.7-0.2-1.4-0.2-2.1c0-3.2,1.5-6.1,4-8.2c0.1-0.1,0.1-0.1,0.2-0.2c0-0.3,0.1-0.6,0.1-0.9
	c0.5-2.5,1.3-4.8,2.5-6.6c0,0,0,0,0,0c0.1-0.1,0.2-0.3,0.3-0.4c0.2-0.2,0.4-0.3,0.7-0.3c0.3,0,0.6,0.2,0.8,0.4c0,0,0,0,0,0
	c0,0.1,0.1,0.1,0.1,0.2c0.9,1.3,1.5,2.9,2,4.6c0.3-0.1,0.5-0.1,0.8-0.2c1-0.2,2-0.3,3.1-0.3c1.6,0,3.1,0.2,4.5,0.6
	c0.1-0.2,0.1-0.3,0.2-0.5c0.6-1.6,1.5-3,2.4-4.1c0.2-0.2,0.3-0.4,0.5-0.5c0.1-0.1,0.2-0.2,0.3-0.3c0.2-0.1,0.4-0.2,0.6-0.1
	c0.2,0,0.3,0.2,0.5,0.3c0,0,0,0,0,0c1.2,1.9,2,4.4,2.1,7.3c0,0.5,0,0.9,0,1.4c0.1,0.1,0.1,0.1,0.2,0.2c1.8,1.8,3.1,4,3.4,6.4
	C34.3,28.3,34.3,28.8,34.3,29.2z"/>
<path class="st1" d="M9.2,9.6v21.6h-6c-0.5,0-1-0.4-1-1V10.6c0-0.5,0.4-1,1-1H9.2z"/>
<path class="st2" d="M37.8,10.6v19.7c0,0.5-0.4,1-1,1h-6V9.6h6C37.4,9.6,37.8,10.1,37.8,10.6z"/>
<path class="st0" d="M30.9,9.6H9.2v-6c0-0.5,0.4-1,1-1h19.7c0.5,0,1,0.4,1,1V9.6z"/>
<path class="st3" d="M30.9,31.3v6c0,0.5-0.4,1-1,1H10.2c-0.5,0-0.9-0.4-1-0.8c0-0.1,0-0.1,0-0.2v-6H30.9z"/>
<circle class="st4" cx="15.7" cy="24.7" r="3"/>
<circle class="st0" cx="16.5" cy="24.8" r="1.7"/>
<circle class="st4" cx="26.5" cy="24.7" r="3"/>
<circle class="st0" cx="27.3" cy="24.8" r="1.7"/>
</svg>
