<?xml version="1.0" encoding="utf-8"?>
<!-- Generator: Adobe Illustrator 27.4.1, SVG Export Plug-In . SVG Version: 6.00 Build 0)  -->
<svg version="1.1" id="Layer_1" xmlns="http://www.w3.org/2000/svg" xmlns:xlink="http://www.w3.org/1999/xlink" x="0px" y="0px"
	 viewBox="0 0 48 48" style="enable-background:new 0 0 48 48;" xml:space="preserve">
<style type="text/css">
	.st0{fill:#ED6C47;}
	.st1{fill:#FF8F6B;}
	.st2{fill:#D35230;}
	.st3{opacity:0.1;enable-background:new    ;}
	.st4{opacity:0.2;enable-background:new    ;}
	.st5{fill:#C43E1C;}
	.st6{fill:#F9F7F7;}
	.st7{fill:none;}
</style>
<path class="st0" d="M26.9,3.6c-11,0-20,9-20,20L32.2,29L26.9,3.6z"/>
<path class="st1" d="M26.9,3.6c11,0,20,9,20,20l-10,6.8l-10-6.8V3.6z"/>
<path class="st2" d="M26.9,43.6c11,0,20-9,20-20H6.9C6.9,34.7,15.9,43.6,26.9,43.6z"/>
<path class="st3" d="M25,10.7H11.6c-6.8,8-6.2,19.9,1.3,27.2H25c1.1,0,1.9-0.9,1.9-1.9V12.6C26.9,11.6,26,10.7,25,10.7z"/>
<path class="st4" d="M23.6,12.2H10.5c-6.1,8.7-4.3,20.7,4.1,27.2h9c1.1,0,1.9-0.9,1.9-1.9V14.1C25.5,13,24.6,12.2,23.6,12.2z"/>
<path class="st4" d="M23.6,12.2H10.5c-5.2,7.4-4.8,17.4,1.1,24.3h12c1.1,0,1.9-0.9,1.9-1.9V14.1C25.5,13,24.6,12.2,23.6,12.2z"/>
<path class="st4" d="M22.1,12.2H10.5c-5.2,7.4-4.8,17.4,1.1,24.3h10.5c1.1,0,1.9-0.9,1.9-1.9V14.1C24,13,23.2,12.2,22.1,12.2z"/>
<path class="st5" d="M3.1,12.2h19.1c1.1,0,1.9,0.9,1.9,1.9l0,0v19.1c0,1.1-0.9,1.9-1.9,1.9c0,0,0,0,0,0H3.1c-1.1,0-1.9-0.9-1.9-1.9
	c0,0,0,0,0,0V14.1C1.1,13,2,12.2,3.1,12.2C3.1,12.2,3.1,12.2,3.1,12.2z"/>
<path class="st6" d="M12.6,16.5c1.4-0.1,2.8,0.3,3.9,1.2c0.9,0.8,1.4,2.1,1.4,3.3c0,0.8-0.2,1.6-0.7,2.3c-0.5,0.7-1.1,1.3-1.9,1.7
	c-0.9,0.4-1.9,0.6-2.9,0.6H9.7v5.2H6.9V16.5H12.6z M9.7,23.2h2.4c0.8,0.1,1.5-0.2,2.1-0.6c0.5-0.3,0.8-0.9,0.7-1.5
	c0-1.6-0.9-2.4-2.8-2.4H9.7V23.2z"/>
<path class="st7" d="M1.1,0.7h45.8v45.8H1.1V0.7z"/>
</svg>
