<?xml version="1.0" encoding="utf-8"?>
<!-- Generator: Adobe Illustrator 27.4.1, SVG Export Plug-In . SVG Version: 6.00 Build 0)  -->
<svg version="1.1" id="Layer_1" xmlns="http://www.w3.org/2000/svg" xmlns:xlink="http://www.w3.org/1999/xlink" x="0px" y="0px"
	 viewBox="0 0 48 48" style="enable-background:new 0 0 48 48;" xml:space="preserve">
<style type="text/css">
	.st0{fill:#011F37;}
	.st1{fill:#30A5FB;}
</style>
<g>
	<path class="st0" d="M23.9,47.3c-5,0-10.1,0-15.1,0c-5.1,0-8.8-3.6-8.8-8.8c0-9.6,0-19.3,0-28.9c0-5.1,3.7-8.8,8.8-8.8
		c10.1,0,20.2,0,30.3,0c5,0,8.7,3.6,8.7,8.6c0,9.9,0,19.6,0,29.4c0,4.9-3.7,8.6-8.7,8.6S29.1,47.3,23.9,47.3z M10.9,23.1
		c0,3.2,0,6.4,0,9.6c0,0.6,0.3,0.9,0.9,0.9c0.9,0,1.8,0,2.7,0c0.6,0,0.8-0.3,0.8-0.8c0-1.7,0-3.2,0-4.9c0-0.9,0.1-1.2,1.2-1.2
		c1.3,0.1,2.6,0,3.8-0.3c5.2-1,7.7-6.9,4.5-11.1c-1.7-2.2-4-2.8-6.7-2.9c-2,0-4.2,0-6.3,0c-0.8,0-1,0.3-1,1
		C10.9,16.9,10.9,20.1,10.9,23.1z M34.7,17.5c-1.9,0-2.8,0.1-4,0.8c-3.2,1.5-3.6,5.9-0.6,7.9c0.9,0.6,1.8,1,2.7,1.4
		c0.6,0.3,1.2,0.5,1.8,0.8c0.4,0.3,0.8,0.5,0.6,1c0,0.5-0.5,0.8-1,0.9c-0.3,0-0.6,0.1-0.9,0.1c-1.7,0-3.2-0.3-4.6-1
		c-0.8-0.4-0.9-0.1-0.8,0.5c0,0.8,0,1.5,0,2.3c0,0.6,0.3,0.9,0.8,1.2c2,0.6,4.2,0.9,6.4,0.4c2.4-0.5,4.1-2,4.4-4
		c0.4-2.4-0.5-4-3.2-5.2c-1-0.5-2-0.9-3.1-1.3c-0.6-0.3-1.3-0.6-1-1.4c0.3-0.8,0.9-0.8,1.5-0.8c1.4-0.1,2.8,0.1,4.1,0.8
		c0.6,0.3,0.8,0.1,0.8-0.5c0-0.8,0-1.5,0-2.3c0-0.6-0.3-0.9-0.8-1C36.9,17.6,35.8,17.5,34.7,17.5z"/>
	<path class="st1" d="M10.9,23.1c0-3.2,0-6.3,0-9.5c0-0.8,0.1-1,1-1c2,0,4.2,0,6.3,0c2.6,0,5,0.8,6.7,2.9c3.2,4.2,0.8,10.1-4.5,11.1
		C19.1,27,17.8,27,16.5,27c-0.9-0.1-1.2,0.3-1.2,1.2c0.1,1.7,0,3.2,0,4.9c0,0.5-0.1,0.8-0.8,0.8c-0.9,0-1.8,0-2.7,0
		c-0.6,0-0.9-0.3-0.9-0.9C10.9,29.5,10.9,26.3,10.9,23.1z M15.2,19.9c0,0.9,0,1.8,0,2.7c0,0.3,0,0.6,0.4,0.6c1.4,0,2.8,0.1,4.2-0.5
		c1.3-0.6,1.9-1.7,1.8-3.2c0-1.3-0.8-2.2-2-2.7c-1.2-0.5-2.4-0.3-3.7-0.3c-0.5,0-0.6,0.3-0.6,0.8C15.2,18.2,15.2,19,15.2,19.9z"/>
	<path class="st1" d="M34.7,17.5c1.2,0,2.2,0.1,3.2,0.4c0.5,0.1,0.9,0.4,0.8,1c0,0.8,0,1.5,0,2.3c0,0.6-0.1,0.9-0.8,0.5
		c-1.3-0.6-2.7-0.8-4.1-0.8c-0.6,0-1.4,0-1.5,0.8c-0.3,0.8,0.5,1.2,1,1.4c1,0.5,2,0.9,3.1,1.3c2.6,1.3,3.5,2.8,3.2,5.2
		c-0.3,1.9-1.9,3.6-4.4,4C33,34,31,33.9,28.8,33.3c-0.6-0.3-0.9-0.5-0.8-1.2c0-0.8,0-1.5,0-2.3c0-0.6,0.1-0.9,0.8-0.5
		c1.4,0.8,2.9,1,4.6,1c0.3,0,0.6,0,0.9-0.1c0.5-0.1,0.9-0.4,1-0.9c0-0.5-0.3-0.8-0.6-1c-0.5-0.3-1.2-0.5-1.8-0.8
		c-1-0.4-1.9-0.8-2.7-1.4c-2.9-2-2.7-6.4,0.6-7.9C31.9,17.8,32.8,17.5,34.7,17.5z"/>
	<path class="st0" d="M15.2,19.9c0-0.9,0-1.8,0-2.7c0-0.5,0.1-0.8,0.6-0.8c1.3,0,2.4-0.1,3.7,0.3c1.3,0.5,2,1.4,2,2.7
		c0.1,1.7-0.5,2.6-1.8,3.2c-1.3,0.6-2.7,0.5-4.2,0.5c-0.5,0-0.4-0.4-0.4-0.6C15.2,21.7,15.2,20.8,15.2,19.9z"/>
</g>
</svg>
