<?xml version="1.0" encoding="utf-8"?>
<!-- Generator: Adobe Illustrator 27.4.1, SVG Export Plug-In . SVG Version: 6.00 Build 0)  -->
<svg version="1.1" id="Layer_1" xmlns="http://www.w3.org/2000/svg" xmlns:xlink="http://www.w3.org/1999/xlink" x="0px" y="0px"
	 viewBox="0 0 48 48" style="enable-background:new 0 0 48 48;" xml:space="preserve">
<style type="text/css">
	.st0{fill:#61DAFB;}
</style>
<g>
	<path class="st0" d="M46.7,24c0-3-3.8-5.8-9.5-7.6c1.3-5.9,0.7-10.5-1.9-12C34.7,4,34,3.8,33.2,3.8v2.1c0.4,0,0.8,0.1,1.1,0.2
		c1.3,0.7,1.8,3.5,1.4,7c-0.1,0.9-0.3,1.8-0.5,2.7c-1.8-0.4-3.8-0.8-5.9-1c-1.2-1.7-2.5-3.3-3.8-4.6c3-2.8,5.8-4.3,7.8-4.3V3.8
		c-2.5,0-5.9,1.8-9.2,5c-3.4-3.1-6.7-4.9-9.2-4.9v2.1c1.9,0,4.7,1.5,7.8,4.3c-1.3,1.4-2.6,2.9-3.8,4.6c-2.1,0.2-4.1,0.6-5.9,1
		c-0.2-0.9-0.4-1.8-0.5-2.7c-0.4-3.5,0.1-6.3,1.3-7C14,6,14.3,5.9,14.8,5.9V3.9c-0.8,0-1.5,0.2-2.1,0.5c-2.6,1.5-3.2,6.2-1.8,12
		C5.1,18.2,1.3,21,1.3,24c0,3,3.8,5.8,9.5,7.6c-1.3,5.9-0.7,10.5,1.9,12c0.6,0.4,1.3,0.5,2.1,0.5c2.5,0,5.9-1.8,9.2-5
		c3.4,3.1,6.7,4.9,9.2,4.9c0.8,0,1.5-0.2,2.1-0.5c2.6-1.5,3.2-6.2,1.8-12C42.9,29.8,46.7,27,46.7,24L46.7,24z M34.6,17.8
		c-0.3,1.2-0.8,2.4-1.2,3.6c-0.4-0.7-0.8-1.5-1.2-2.2c-0.4-0.7-0.9-1.5-1.3-2.2C32.2,17.3,33.4,17.5,34.6,17.8L34.6,17.8z
		 M30.4,27.7c-0.7,1.2-1.5,2.4-2.2,3.5c-1.4,0.1-2.8,0.2-4.2,0.2c-1.4,0-2.8-0.1-4.2-0.2c-0.8-1.1-1.5-2.3-2.2-3.5
		c-0.7-1.2-1.3-2.4-1.9-3.7c0.6-1.2,1.2-2.5,1.9-3.7c0.7-1.2,1.5-2.4,2.2-3.5c1.4-0.1,2.8-0.2,4.2-0.2c1.4,0,2.8,0.1,4.2,0.2
		c0.8,1.1,1.5,2.3,2.2,3.5c0.7,1.2,1.3,2.4,1.9,3.7C31.7,25.2,31.1,26.5,30.4,27.7L30.4,27.7z M33.4,26.5c0.5,1.2,0.9,2.5,1.3,3.7
		c-1.2,0.3-2.5,0.5-3.8,0.7c0.5-0.7,0.9-1.4,1.3-2.2C32.6,28,33,27.2,33.4,26.5L33.4,26.5z M24,36.3c-0.9-0.9-1.7-1.9-2.6-3
		c0.8,0,1.7,0.1,2.5,0.1c0.9,0,1.7,0,2.6-0.1C25.7,34.5,24.9,35.4,24,36.3z M17.1,30.9c-1.3-0.2-2.6-0.4-3.8-0.7
		c0.3-1.2,0.8-2.4,1.2-3.6c0.4,0.7,0.8,1.5,1.2,2.2S16.7,30.2,17.1,30.9z M24,11.7c0.9,0.9,1.7,1.9,2.6,3c-0.8,0-1.7-0.1-2.5-0.1
		c-0.9,0-1.7,0-2.6,0.1C22.3,13.5,23.1,12.6,24,11.7z M17.1,17.1c-0.5,0.7-0.9,1.4-1.3,2.2c-0.4,0.7-0.8,1.5-1.2,2.2
		c-0.5-1.2-0.9-2.5-1.3-3.7C14.5,17.6,15.8,17.3,17.1,17.1L17.1,17.1z M8.8,28.7c-3.3-1.4-5.4-3.2-5.4-4.7s2.1-3.3,5.4-4.7
		c0.8-0.3,1.7-0.6,2.6-0.9c0.5,1.8,1.2,3.7,2.1,5.6c-0.8,1.9-1.5,3.8-2.1,5.6C10.5,29.3,9.6,29,8.8,28.7L8.8,28.7z M13.7,41.9
		c-1.3-0.7-1.8-3.5-1.4-7c0.1-0.9,0.3-1.8,0.5-2.7c1.8,0.4,3.8,0.8,5.9,1c1.2,1.7,2.5,3.3,3.8,4.6c-3,2.8-5.8,4.3-7.8,4.3
		C14.4,42.1,14,42,13.7,41.9L13.7,41.9z M35.7,34.8c0.4,3.5-0.1,6.3-1.3,7c-0.3,0.2-0.6,0.2-1.1,0.2c-1.9,0-4.7-1.5-7.8-4.3
		c1.3-1.4,2.6-2.9,3.8-4.6c2.1-0.2,4.1-0.6,5.9-1C35.4,33.1,35.6,34,35.7,34.8z M39.2,28.7c-0.8,0.3-1.7,0.6-2.6,0.9
		c-0.5-1.8-1.2-3.7-2.1-5.6c0.8-1.9,1.5-3.8,2.1-5.6c0.9,0.3,1.8,0.6,2.6,0.9c3.3,1.4,5.4,3.2,5.4,4.7
		C44.6,25.5,42.5,27.3,39.2,28.7L39.2,28.7z"/>
	<circle class="st0" cx="24" cy="24" r="4.2"/>
</g>
</svg>
