<?xml version="1.0" encoding="utf-8"?>
<!-- Generator: Adobe Illustrator 27.4.1, SVG Export Plug-In . SVG Version: 6.00 Build 0)  -->
<svg version="1.1" id="Layer_1" xmlns="http://www.w3.org/2000/svg" xmlns:xlink="http://www.w3.org/1999/xlink" x="0px" y="0px"
	 viewBox="0 0 48 48" style="enable-background:new 0 0 48 48;" xml:space="preserve">
<style type="text/css">
	.st0{fill-rule:evenodd;clip-rule:evenodd;fill:#06B6D4;}
</style>
<path class="st0" d="M24,10.1c-6.2,0-10,3.1-11.6,9.3c2.3-3.1,5-4.3,8.1-3.5c1.8,0.4,3,1.7,4.4,3.1c2.3,2.3,4.9,5,10.6,5
	c6.2,0,10-3.1,11.6-9.3c-2.3,3.1-5,4.3-8.1,3.5c-1.8-0.4-3-1.7-4.4-3.1C32.4,12.8,29.7,10.1,24,10.1L24,10.1z M12.4,24
	c-6.2,0-10,3.1-11.6,9.3c2.3-3.1,5-4.3,8.1-3.5c1.8,0.4,3,1.7,4.4,3.1c2.3,2.3,4.9,5,10.6,5c6.2,0,10-3.1,11.6-9.3
	c-2.3,3.1-5,4.3-8.1,3.5c-1.8-0.4-3-1.7-4.4-3.1C20.8,26.7,18.2,24,12.4,24L12.4,24z"/>
</svg>
