<?xml version="1.0" encoding="utf-8"?>
<!-- Generator: Adobe Illustrator 27.4.1, SVG Export Plug-In . SVG Version: 6.00 Build 0)  -->
<svg version="1.1" id="Layer_1" xmlns="http://www.w3.org/2000/svg" xmlns:xlink="http://www.w3.org/1999/xlink" x="0px" y="0px"
	 viewBox="0 0 48 48" style="enable-background:new 0 0 48 48;" xml:space="preserve">
<style type="text/css">
	.st0{fill:#2489CA;}
	.st1{fill:#1070B3;}
	.st2{fill:#0877B9;}
	.st3{fill:#3C99D4;}
</style>
<path class="st0" d="M1.2,17.1c0,0-1.1-0.8,0.2-1.9l3.2-2.8c0,0,0.9-0.9,1.9-0.1l29.1,22v10.6c0,0,0,1.7-2.1,1.5L1.2,17.1z"/>
<path class="st1" d="M8.7,23.9l-7.5,6.8c0,0-0.8,0.6,0,1.6l3.5,3.2c0,0,0.8,0.9,2-0.1l8-6L8.7,23.9z"/>
<path class="st2" d="M21.8,23.9l13.8-10.5L35.5,2.9c0,0-0.6-2.3-2.5-1.1L14.6,18.5L21.8,23.9z"/>
<path class="st3" d="M33.4,46.3c0.8,0.8,1.8,0.5,1.8,0.5l10.7-5.3c1.4-0.9,1.2-2.1,1.2-2.1V7.9c0-1.4-1.4-1.9-1.4-1.9l-9.3-4.5
	c-2-1.3-3.4,0.2-3.4,0.2s1.7-1.2,2.5,1.1v41.7c0,0.3-0.1,0.6-0.2,0.8C35.1,46,34.5,46.4,33.4,46.3L33.4,46.3z"/>
</svg>
