<?xml version="1.0" encoding="utf-8"?>
<!-- Generator: Adobe Illustrator 27.4.1, SVG Export Plug-In . SVG Version: 6.00 Build 0)  -->
<svg version="1.1" id="Layer_1" xmlns="http://www.w3.org/2000/svg" xmlns:xlink="http://www.w3.org/1999/xlink" x="0px" y="0px"
	 viewBox="0 0 48 48" style="enable-background:new 0 0 48 48;" xml:space="preserve">
<style type="text/css">
	.st0{fill:#41A5EE;}
	.st1{fill:#2B7CD3;}
	.st2{fill:#185ABD;}
	.st3{fill:#103F91;}
	.st4{opacity:0.1;enable-background:new    ;}
	.st5{opacity:0.2;enable-background:new    ;}
	.st6{fill:#FFFFFF;}
</style>
<path class="st0" d="M44.7,4.3h-30c-1,0-1.9,0.8-1.9,1.9l0,0v8l16.9,4.9l16.9-4.9v-8C46.6,5.1,45.8,4.3,44.7,4.3L44.7,4.3z"/>
<path class="st1" d="M46.6,14.1H12.8V24l16.9,4.9L46.6,24V14.1z"/>
<path class="st2" d="M46.6,24H12.8v9.9l16.9,4.9l16.9-4.9V24z"/>
<path class="st3" d="M46.6,33.9H12.8v8c0,1,0.8,1.9,1.9,1.9c0,0,0,0,0,0h30c1,0,1.9-0.8,1.9-1.9l0,0V33.9z"/>
<path class="st4" d="M25,11.3H12.8v26.7H25c1,0,1.9-0.8,1.9-1.9v-23C26.9,12.2,26.1,11.3,25,11.3z"/>
<path class="st5" d="M23.6,12.7H12.8v26.7h10.8c1,0,1.9-0.8,1.9-1.9v-23C25.5,13.6,24.7,12.7,23.6,12.7z"/>
<path class="st5" d="M23.6,12.7H12.8v23.9h10.8c1,0,1.9-0.8,1.9-1.9V14.6C25.5,13.6,24.7,12.7,23.6,12.7z"/>
<path class="st5" d="M22.2,12.7h-9.4v23.9h9.4c1,0,1.9-0.8,1.9-1.9V14.6C24.1,13.6,23.2,12.7,22.2,12.7z"/>
<path class="st2" d="M3.4,12.7h18.8c1,0,1.9,0.8,1.9,1.9l0,0v18.8c0,1-0.8,1.9-1.9,1.9c0,0,0,0,0,0H3.4c-1,0-1.9-0.8-1.9-1.9
	c0,0,0,0,0,0V14.6C1.6,13.6,2.4,12.7,3.4,12.7C3.4,12.7,3.4,12.7,3.4,12.7z"/>
<path class="st6" d="M18.4,31h-2.5l-3-9.7L9.8,31H7.3L4.5,17H7l2,9.9l3-9.6H14l2.8,9.6l2-9.9h2.4L18.4,31z"/>
</svg>
