<?xml version="1.0" encoding="utf-8"?>
<!-- Generator: Adobe Illustrator 27.4.1, SVG Export Plug-In . SVG Version: 6.00 Build 0)  -->
<svg version="1.1" id="Layer_1" xmlns="http://www.w3.org/2000/svg" xmlns:xlink="http://www.w3.org/1999/xlink" x="0px" y="0px"
	 viewBox="0 0 48 48" style="enable-background:new 0 0 48 48;" xml:space="preserve">
<style type="text/css">
	.st0{fill:#21759B;}
</style>
<g>
	<path class="st0" d="M4.7,24c0,7.6,4.4,14.2,10.9,17.4L6.4,16.2C5.3,18.6,4.7,21.3,4.7,24L4.7,24z M37,23c0-2.4-0.9-4-1.6-5.3
		c-1-1.6-1.9-2.9-1.9-4.5c0-1.8,1.3-3.4,3.2-3.4c0.1,0,0.2,0,0.2,0c-3.4-3.1-8-5.1-13-5.1c-6.7,0-12.7,3.5-16.1,8.7
		c0.5,0,0.9,0,1.2,0c2,0,5.1-0.2,5.1-0.2c1-0.1,1.2,1.5,0.1,1.6c0,0-1,0.1-2.2,0.2l7,20.9l4.2-12.7l-3-8.2c-1-0.1-2-0.2-2-0.2
		c-1-0.1-0.9-1.6,0.1-1.6c0,0,3.2,0.2,5.1,0.2c2,0,5.1-0.2,5.1-0.2c1-0.1,1.2,1.5,0.1,1.6c0,0-1,0.1-2.2,0.2l7,20.7l1.9-6.4
		C36.4,26.6,37,24.7,37,23L37,23z"/>
	<path class="st0" d="M24.3,25.7l-5.8,16.8c1.8,0.5,3.6,0.8,5.4,0.8c2.2,0,4.4-0.4,6.4-1.1c-0.1-0.1-0.1-0.2-0.1-0.3L24.3,25.7z
		 M40.9,14.8c0.1,0.6,0.1,1.3,0.1,2c0,2-0.4,4.2-1.5,6.9l-5.9,17c5.7-3.3,9.6-9.6,9.6-16.7C43.3,20.6,42.4,17.5,40.9,14.8L40.9,14.8
		z"/>
	<path class="st0" d="M24,1.5C11.6,1.5,1.5,11.6,1.5,24c0,12.4,10.1,22.5,22.5,22.5c12.4,0,22.5-10.1,22.5-22.5
		C46.5,11.6,36.4,1.5,24,1.5z M24,45.4C12.2,45.4,2.6,35.8,2.6,24C2.6,12.2,12.2,2.6,24,2.6c11.8,0,21.4,9.6,21.4,21.4
		C45.4,35.8,35.8,45.4,24,45.4L24,45.4z"/>
</g>
</svg>
